# xmcd
#
# Track frame offsets:
#	150
#	39450
#	59170
#	89660
#	128290
#	153592
#	180062
#
# Disc length: 2889 seconds
#
# Revision: 1
# Processed by: cddbd v1.5.1PL2 Copyright (c) Steve Scherf et al.
# Submitted via: CDmax 2.0
#
DISCID=520b4707
DTITLE=Eric Clapton - Le Zenith (disc2)
DYEAR=1987
DGENRE=Blues
TTITLE0=Badge
TTITLE1=Let It Rain
TTITLE2=Cocaine
TTITLE3=Layla
TTITLE4=Money for Nothing
TTITLE5=Sunshine of Your Love
TTITLE6=Further on Up the Road
EXTD=Eric Clapton\tguitar, vocals\nMark Knopfler\tguitar\nNathan East\tbass\n
EXTD=Steve Ferrone\tdrums\nGreg Phillinganes\tkeyboards\n\nRecorded live at l
EXTD=e Zenith, Paris, France on January 18th, 1987
EXTT0=
EXTT1=
EXTT2=
EXTT3=
EXTT4=
EXTT5=
EXTT6=
PLAYORDER=
